<svg xmlns="http://www.w3.org/2000/svg" width="100%" height="100%" viewBox="0 0 223 142" fill="none" preserveAspectRatio="xMidYMid">
  <rect x="65" y="25" width="92" height="92" fill="#111318"/>
  <path d="M111.074 0C111.074 0 37.8554 5.53131e-05 21.9883 4.12304C13.4925 6.49685 6.49687 13.4925 4.12304 22.1133C9.05991e-05 37.9804 0 70.8398 0 70.8398C0 70.8398 9.05991e-05 103.824 4.12304 119.441C6.49687 128.062 13.3675 134.933 21.9883 137.307C37.9803 141.555 111.074 141.555 111.074 141.555C111.074 141.555 184.418 141.555 200.285 137.432C208.906 135.058 215.776 128.312 218.025 119.566C222.273 103.824 222.273 70.9648 222.273 70.9648C222.273 70.9648 222.398 37.9804 218.025 22.1133C215.776 13.4925 208.906 6.62195 200.285 4.37304C184.418 0.000197887 111.074 0 111.074 0ZM90.959 40.4805L143.559 70.8398L90.959 101.074V40.4805Z" fill="#F3F4F7"/>
</svg>
